<?xml version="1.0" encoding="UTF-8" standalone="no"?>
<svg
   xmlns:dc="http://purl.org/dc/elements/1.1/"
   xmlns:cc="http://creativecommons.org/ns#"
   xmlns:rdf="http://www.w3.org/1999/02/22-rdf-syntax-ns#"
   xmlns:svg="http://www.w3.org/2000/svg"
   xmlns="http://www.w3.org/2000/svg"
   viewBox="0 0 1066.6667 1066.6667"
   height="1066.6667"
   width="1066.6667"
   xml:space="preserve"
   id="svg2"
   version="1.1"><metadata
     id="metadata8"><rdf:RDF><cc:Work
         rdf:about=""><dc:format>image/svg+xml</dc:format><dc:type
           rdf:resource="http://purl.org/dc/dcmitype/StillImage" /></cc:Work></rdf:RDF></metadata><defs
     id="defs6"><clipPath
       id="clipPath22"
       clipPathUnits="userSpaceOnUse"><path
         id="path20"
         d="M 0,800 H 800 V 0 H 0 Z" /></clipPath><clipPath
       id="clipPath70"
       clipPathUnits="userSpaceOnUse"><path
         id="path68"
         d="M 0,800 H 800 V 0 H 0 Z" /></clipPath></defs><g
     transform="matrix(1.3333333,0,0,-1.3333333,0,1066.6667)"
     id="g10"><g
       transform="translate(371.645,619.8379)"
       id="g12"><path
         id="path14"
         style="fill:#6eb748;fill-opacity:1;fill-rule:nonzero;stroke:none"
         d="M 0,0 147.387,-84 V -256.667 L 0,-341.167 l -149.28,85 v 171 z" /></g><g
       id="g16"><g
         clip-path="url(#clipPath22)"
         id="g18"><g
           transform="translate(371.6432,619.127)"
           id="g24"><path
             id="path26"
             style="fill:#1b5605;fill-opacity:1;fill-rule:nonzero;stroke:none"
             d="m 0,0 -8.781,-5.571 -9.105,-5.717 c -6.068,-3.816 -12.165,-7.58 -18.258,-11.351 -6.086,-3.783 -12.194,-7.528 -18.309,-11.26 l -18.346,-11.198 -18.39,-11.118 c -6.123,-3.719 -12.269,-7.396 -18.422,-11.063 l -18.448,-11.017 -9.232,-5.495 -9.253,-5.458 2.783,4.792 c 0.186,-14.25 0.453,-28.5 0.573,-42.75 l 0.203,-21.375 0.118,-21.375 0.036,-21.375 -0.045,-21.375 c -0.01,-7.125 -0.08,-14.25 -0.138,-21.375 l -0.176,-21.375 -3.076,5.29 37.11,-21.618 37.068,-21.693 9.258,-5.439 9.225,-5.497 c 6.144,-3.675 12.311,-7.309 18.433,-11.023 l 36.784,-22.191 -3.229,-0.005 18.681,10.113 18.631,10.2 c 6.212,3.397 12.377,6.876 18.568,10.31 l 9.269,5.181 9.234,5.243 c 6.148,3.508 12.328,6.962 18.45,10.515 6.138,3.526 12.257,7.087 18.362,10.67 3.062,1.776 6.092,3.607 9.136,5.413 l 9.125,5.433 c 3.036,1.82 6.094,3.603 9.113,5.453 l 9.08,5.511 -1.371,-2.366 c -0.17,7.195 -0.364,14.389 -0.588,21.584 l -0.634,21.583 c -0.205,7.194 -0.435,14.389 -0.588,21.583 -0.156,7.195 -0.37,14.389 -0.48,21.584 l -0.17,10.791 -0.127,10.792 c -0.04,7.194 -0.103,14.389 -0.085,21.583 -0.022,7.195 0.05,14.389 0.095,21.583 l 0.146,21.584 2.604,-4.482 -9.176,5.312 -9.139,5.378 -18.272,10.766 -9.134,5.385 -9.096,5.453 -18.193,10.906 -9.068,5.501 -9.057,5.521 -9.058,5.521 -9.02,5.585 -9.019,5.588 -8.989,5.641 -8.973,5.669 z m -0.001,1.383 9.788,-4.916 9.45,-4.831 9.435,-4.859 9.404,-4.912 9.403,-4.915 9.366,-4.979 9.366,-4.979 9.355,-4.999 18.654,-10.094 9.327,-5.047 9.289,-5.115 18.575,-10.234 9.285,-5.122 9.247,-5.188 2.584,-1.45 0.02,-3.032 0.146,-21.584 c 0.045,-7.194 0.117,-14.388 0.095,-21.583 0.018,-7.194 -0.045,-14.389 -0.085,-21.583 l -0.127,-10.792 -0.171,-10.791 c -0.109,-7.195 -0.323,-14.389 -0.479,-21.584 -0.153,-7.194 -0.383,-14.389 -0.588,-21.583 l -0.634,-21.583 c -0.224,-7.195 -0.418,-14.389 -0.588,-21.584 l -0.039,-1.646 -1.332,-0.72 -9.344,-5.051 c -3.122,-1.671 -6.205,-3.408 -9.31,-5.11 l -9.299,-5.129 c -3.096,-1.715 -6.207,-3.405 -9.286,-5.15 -6.178,-3.458 -12.341,-6.939 -18.486,-10.455 -6.159,-3.489 -12.262,-7.076 -18.396,-10.61 l -9.189,-5.319 -9.154,-5.382 c -6.092,-3.607 -12.209,-7.17 -18.279,-10.814 L 19.787,-332.268 1.621,-343.28 0.1,-344.202 l -1.709,0.918 -37.856,20.309 c -6.318,3.369 -12.59,6.818 -18.886,10.226 l -9.435,5.129 -9.403,5.185 -37.571,20.808 -37.53,20.881 -3.046,1.695 -0.03,3.595 -0.176,21.375 c -0.059,7.125 -0.129,14.25 -0.138,21.375 l -0.046,21.375 0.036,21.375 0.119,21.375 0.202,21.375 c 0.12,14.25 0.387,28.5 0.574,42.75 l 0.043,3.281 2.74,1.511 9.407,5.188 9.428,5.151 18.872,10.274 c 6.287,3.431 12.581,6.851 18.898,10.23 l 18.929,10.173 18.975,10.094 c 6.325,3.365 12.657,6.717 19.011,10.031 6.346,3.327 12.689,6.66 19.062,9.941 l 9.555,4.929 z" /></g><g
           transform="translate(425.2221,494.4327)"
           id="g28"><path
             id="path30"
             style="fill:#071906;fill-opacity:1;fill-rule:nonzero;stroke:none"
             d="M 0,0 C -0.52,11.426 16.891,12.219 17.411,0.793 17.936,-10.742 0.525,-11.535 0,0" /></g><g
           transform="translate(427.2602,492.8356)"
           id="g32"><path
             id="path34"
             style="fill:#1b5605;fill-opacity:1;fill-rule:nonzero;stroke:none"
             d="M 0,0 C -0.52,11.426 16.891,12.219 17.411,0.793 17.936,-10.742 0.525,-11.535 0,0" /></g><g
           transform="translate(429.4121,494.9182)"
           id="g36"><path
             id="path38"
             style="fill:none;stroke:#f2f4f3;stroke-width:1.55999994;stroke-linecap:round;stroke-linejoin:round;stroke-miterlimit:10;stroke-dasharray:none;stroke-opacity:1"
             d="M 0,0 C 0,0 -0.581,-7.403 6.097,-7.984" /></g><g
           transform="translate(420.1942,446.2086)"
           id="g40"><path
             id="path42"
             style="fill:#071906;fill-opacity:1;fill-rule:nonzero;stroke:none"
             d="M 0,0 C 2.747,0.125 5.278,-1.362 6.622,-3.762 9.002,-8.014 14.488,-10.22 18.848,-9.999 25.13,-9.68 29.93,-5.87 29.624,0.472 29.308,7 27.817,10.411 21.314,11.003 8.217,12.194 5.733,16.221 5.291,24.093 c -0.65,11.573 6.193,8.509 10.094,9.021 l 1.39,-0.122 c 2.901,-0.421 1.934,-4.143 2.95,-7.144 0.726,-2.141 5.028,-2.888 7.412,-3.641 5.364,-1.479 16.813,-6.254 17.39,-20.948 0.641,-16.33 -11.221,-22.925 -24.892,-23.762 -11.671,-0.715 -21.757,3.129 -26.28,12.107 -2.332,4.632 0.876,10.133 6.057,10.369 z" /></g><g
           transform="translate(422.925,444.4651)"
           id="g44"><path
             id="path46"
             style="fill:#1b5605;fill-opacity:1;fill-rule:nonzero;stroke:none"
             d="M 0,0 C 2.747,0.125 5.278,-1.362 6.622,-3.762 9.002,-8.014 14.488,-10.22 18.848,-9.999 25.13,-9.68 29.93,-5.87 29.624,0.472 29.308,7 27.817,10.411 21.314,11.003 8.217,12.194 5.733,16.221 5.291,24.093 c -0.65,11.573 6.193,8.509 10.094,9.021 l 1.39,-0.122 c 2.901,-0.421 1.934,-4.143 2.95,-7.144 0.726,-2.141 5.028,-2.888 7.412,-3.641 5.364,-1.479 16.813,-6.254 17.39,-20.948 0.641,-16.33 -11.221,-22.925 -24.892,-23.762 -11.671,-0.715 -21.757,3.129 -26.28,12.107 -2.332,4.632 0.876,10.133 6.057,10.369 z" /></g><g
           transform="translate(418.7773,435.2489)"
           id="g48"><path
             id="path50"
             style="fill:none;stroke:#f2f4f3;stroke-width:1.55999994;stroke-linecap:round;stroke-linejoin:round;stroke-miterlimit:10;stroke-dasharray:none;stroke-opacity:1"
             d="M 0,0 C 0,0 6.423,-18.072 33.314,-10.234" /></g><g
           transform="translate(456.2283,426.9749)"
           id="g52"><path
             id="path54"
             style="fill:none;stroke:#f2f4f3;stroke-width:1.55999994;stroke-linecap:round;stroke-linejoin:round;stroke-miterlimit:10;stroke-dasharray:none;stroke-opacity:1"
             d="M 0,0 C 0,0 3.919,2.177 5.008,5.008" /></g></g></g><text
       id="text62"
       style="font-variant:normal;font-weight:normal;font-stretch:normal;font-size:105.88909912px;font-family:'Book Antiqua';-inkscape-font-specification:BookAntiqua;writing-mode:lr-tb;fill:#000000;fill-opacity:1;fill-rule:nonzero;stroke:none"
       transform="matrix(1,0,0,-1,238.6279,426.9746)"><tspan
         id="tspan56"
         y="0"
         x="0">d</tspan><tspan
         id="tspan58"
         y="-1.1647801"
         x="113.40723">u</tspan><tspan
         id="tspan60"
         y="0.31766731"
         x="228.82635">t</tspan></text>
<g
       id="g64"><g
         clip-path="url(#clipPath70)"
         id="g66"><g
           transform="translate(352.0337,450.6729)"
           id="g72"><path
             id="path74"
             style="fill:#1b5605;fill-opacity:1;fill-rule:nonzero;stroke:none"
             d="m 0,0 c 0,-14.766 -11.971,-26.737 -26.737,-26.737 -14.766,0 -26.737,11.971 -26.737,26.737 0,14.766 11.971,26.737 26.737,26.737 C -11.971,26.737 0,14.766 0,0" /></g><g
           transform="translate(352.0337,450.6729)"
           id="g76"><path
             id="path78"
             style="fill:none;stroke:#070707;stroke-width:1;stroke-linecap:butt;stroke-linejoin:miter;stroke-miterlimit:10;stroke-dasharray:none;stroke-opacity:1"
             d="m 0,0 c 0,-14.766 -11.971,-26.737 -26.737,-26.737 -14.766,0 -26.737,11.971 -26.737,26.737 0,14.766 11.971,26.737 26.737,26.737 C -11.971,26.737 0,14.766 0,0 Z" /></g><g
           transform="translate(321.9653,460.5807)"
           id="g80"><path
             id="path82"
             style="fill:#fdfeff;fill-opacity:1;fill-rule:nonzero;stroke:none"
             d="m 0,0 c -1.73,-7.234 -6.713,-12.242 -11.13,-11.186 -4.417,1.057 -6.596,7.777 -4.866,15.011 1.73,7.234 6.713,12.242 11.13,11.186 C -0.449,13.954 1.73,7.234 0,0" /></g><g
           transform="translate(321.9307,460.5896)"
           id="g84"><path
             id="path86"
             style="fill:#000000;fill-opacity:1;fill-rule:nonzero;stroke:none"
             d="M 0,0 C 0,0 0.051,0.264 0.147,0.76 0.255,1.254 0.358,1.989 0.45,2.926 0.526,3.863 0.571,5.011 0.434,6.312 0.292,7.608 0.006,9.068 -0.621,10.527 c -0.32,0.724 -0.721,1.448 -1.251,2.099 -0.502,0.664 -1.188,1.248 -1.941,1.617 -0.784,0.382 -1.683,0.603 -2.589,0.523 -0.911,-0.076 -1.817,-0.396 -2.659,-0.874 -1.693,-0.971 -3.071,-2.559 -4.193,-4.305 -1.096,-1.791 -1.901,-3.745 -2.431,-5.846 -0.496,-2.055 -0.705,-4.215 -0.563,-6.304 0.176,-2.079 0.682,-4.141 1.758,-5.81 0.538,-0.824 1.214,-1.545 2.012,-2.044 l 0.607,-0.323 c 0.221,-0.086 0.454,-0.155 0.678,-0.233 0.425,-0.101 0.889,-0.206 1.336,-0.181 0.898,-0.01 1.777,0.211 2.547,0.586 0.787,0.347 1.473,0.837 2.088,1.35 1.222,1.047 2.125,2.241 2.824,3.348 0.698,1.114 1.164,2.166 1.51,3.042 0.331,0.883 0.563,1.587 0.684,2.079 C -0.071,-0.26 0,0 0,0 m 0.069,-0.018 c 0,0 -0.071,-0.261 -0.204,-0.749 -0.121,-0.491 -0.353,-1.2 -0.686,-2.087 -0.353,-0.877 -0.814,-1.933 -1.486,-3.071 -0.683,-1.127 -1.567,-2.348 -2.783,-3.445 -0.613,-0.537 -1.302,-1.056 -2.107,-1.435 -0.788,-0.406 -1.703,-0.664 -2.658,-0.677 -0.482,-0.033 -0.956,0.054 -1.45,0.167 -0.227,0.076 -0.456,0.14 -0.684,0.226 l -0.682,0.348 c -0.866,0.526 -1.589,1.281 -2.165,2.141 -1.151,1.739 -1.694,3.86 -1.902,5.997 -0.171,2.154 0.01,4.345 0.501,6.494 0.492,2.096 1.307,4.198 2.41,6.049 1.127,1.841 2.577,3.509 4.412,4.569 0.915,0.521 1.922,0.883 2.96,0.969 1.044,0.095 2.07,-0.16 2.927,-0.618 0.899,-0.473 1.597,-1.128 2.131,-1.865 0.561,-0.717 0.93,-1.514 1.23,-2.283 C 0.41,9.158 0.625,7.655 0.706,6.333 0.771,5.007 0.689,3.854 0.596,2.911 0.479,1.971 0.357,1.235 0.236,0.742 0.128,0.247 0.069,-0.018 0.069,-0.018" /></g><g
           transform="translate(334.4417,466.8024)"
           id="g88"><path
             id="path90"
             style="fill:#ffffff;fill-opacity:1;fill-rule:nonzero;stroke:none"
             d="m 0,0 c 0,0 7.897,-4.156 2.806,-12.573 0,0 -5.161,-6.061 -13.405,-2.078 0,0 -4.883,1.87 -4.987,8.52 z" /></g><g
           transform="translate(334.4417,466.8024)"
           id="g92"><path
             id="path94"
             style="fill:none;stroke:#000000;stroke-width:0.41600001;stroke-linecap:butt;stroke-linejoin:miter;stroke-miterlimit:10;stroke-dasharray:none;stroke-opacity:1"
             d="m 0,0 c 0,0 7.897,-4.156 2.806,-12.573 0,0 -5.161,-6.061 -13.405,-2.078 0,0 -4.883,1.87 -4.987,8.52 z" /></g><g
           transform="translate(314.2828,461.8721)"
           id="g96"><path
             id="path98"
             style="fill:#0b2477;fill-opacity:1;fill-rule:nonzero;stroke:none"
             d="m 0,0 c 0,-3.214 -1.768,-5.819 -3.948,-5.819 -2.181,0 -3.949,2.605 -3.949,5.819 0,3.214 1.768,5.819 3.949,5.819 C -1.768,5.819 0,3.214 0,0" /></g><g
           transform="translate(314.2828,461.8721)"
           id="g100"><path
             id="path102"
             style="fill:none;stroke:#000000;stroke-width:0.208;stroke-linecap:butt;stroke-linejoin:miter;stroke-miterlimit:10;stroke-dasharray:none;stroke-opacity:1"
             d="m 0,0 c 0,-3.214 -1.768,-5.819 -3.948,-5.819 -2.181,0 -3.949,2.605 -3.949,5.819 0,3.214 1.768,5.819 3.949,5.819 C -1.768,5.819 0,3.214 0,0 Z" /></g><g
           transform="translate(311.6344,462.6114)"
           id="g104"><path
             id="path106"
             style="fill:#000000;fill-opacity:1;fill-rule:nonzero;stroke:none"
             d="m 0,0 c 0,-1.282 -0.868,-2.321 -1.94,-2.321 -1.071,0 -1.939,1.039 -1.939,2.321 0,1.282 0.868,2.321 1.939,2.321 C -0.868,2.321 0,1.282 0,0" /></g><g
           transform="translate(311.6344,462.6114)"
           id="g108"><path
             id="path110"
             style="fill:none;stroke:#000000;stroke-width:0.41600001;stroke-linecap:butt;stroke-linejoin:miter;stroke-miterlimit:10;stroke-dasharray:none;stroke-opacity:1"
             d="m 0,0 c 0,-1.282 -0.868,-2.321 -1.94,-2.321 -1.071,0 -1.939,1.039 -1.939,2.321 0,1.282 0.868,2.321 1.939,2.321 C -0.868,2.321 0,1.282 0,0 Z" /></g><g
           transform="translate(312.3963,464.1354)"
           id="g112"><path
             id="path114"
             style="fill:#ffffff;fill-opacity:1;fill-rule:nonzero;stroke:none"
             d="m 0,0 c 0,-0.593 -0.462,-1.074 -1.031,-1.074 -0.569,0 -1.031,0.481 -1.031,1.074 0,0.593 0.462,1.074 1.031,1.074 C -0.462,1.074 0,0.593 0,0" /></g><g
           transform="translate(320.5874,459.1991)"
           id="g116"><path
             id="path118"
             style="fill:#0b2477;fill-opacity:1;fill-rule:nonzero;stroke:none"
             d="m 0,0 c 0,-2.005 1.721,-3.631 3.845,-3.631 2.123,0 3.844,1.626 3.844,3.631 0,2.005 -1.721,3.631 -3.844,3.631 C 1.721,3.631 0,2.005 0,0" /></g><g
           transform="translate(320.5874,459.1991)"
           id="g120"><path
             id="path122"
             style="fill:none;stroke:#000000;stroke-width:0.208;stroke-linecap:butt;stroke-linejoin:miter;stroke-miterlimit:10;stroke-dasharray:none;stroke-opacity:1"
             d="m 0,0 c 0,-2.005 1.721,-3.631 3.845,-3.631 2.123,0 3.844,1.626 3.844,3.631 0,2.005 -1.721,3.631 -3.844,3.631 C 1.721,3.631 0,2.005 0,0 Z" /></g><g
           transform="translate(325.575,459.5635)"
           id="g124"><path
             id="path126"
             style="fill:#000000;fill-opacity:1;fill-rule:nonzero;stroke:none"
             d="m 0,0 c 0,-0.937 -0.806,-1.697 -1.801,-1.697 -0.995,0 -1.801,0.76 -1.801,1.697 0,0.937 0.806,1.697 1.801,1.697 C -0.806,1.697 0,0.937 0,0" /></g><g
           transform="translate(325.575,459.5635)"
           id="g128"><path
             id="path130"
             style="fill:none;stroke:#000000;stroke-width:0.208;stroke-linecap:butt;stroke-linejoin:miter;stroke-miterlimit:10;stroke-dasharray:none;stroke-opacity:1"
             d="m 0,0 c 0,-0.937 -0.806,-1.697 -1.801,-1.697 -0.995,0 -1.801,0.76 -1.801,1.697 0,0.937 0.806,1.697 1.801,1.697 C -0.806,1.697 0,0.937 0,0 Z" /></g><g
           transform="translate(326.2677,460.2299)"
           id="g132"><path
             id="path134"
             style="fill:#f9f9f9;fill-opacity:1;fill-rule:nonzero;stroke:none"
             d="m 0,0 c 0,-0.569 -0.411,-1.031 -0.918,-1.031 -0.507,0 -0.918,0.462 -0.918,1.031 0,0.569 0.411,1.031 0.918,1.031 C -0.411,1.031 0,0.569 0,0" /></g><g
           transform="translate(336.8389,467.6909)"
           id="g136"><path
             id="path138"
             style="fill:#ffffff;fill-opacity:1;fill-rule:nonzero;stroke:none"
             d="M 0,0 -17.983,-7.019" /></g><g
           transform="translate(336.8389,467.6909)"
           id="g140"><path
             id="path142"
             style="fill:#000000;fill-opacity:1;fill-rule:nonzero;stroke:none"
             d="m 0,0 c 0,0 -0.256,-0.173 -0.715,-0.45 -0.23,-0.136 -0.509,-0.302 -0.829,-0.493 -0.161,-0.095 -0.331,-0.196 -0.511,-0.303 -0.18,-0.105 -0.397,-0.145 -0.604,-0.238 -1.686,-0.658 -3.934,-1.535 -6.182,-2.413 -2.247,-0.877 -4.495,-1.754 -6.181,-2.413 -0.409,-0.198 -0.821,-0.283 -1.188,-0.352 -0.365,-0.077 -0.683,-0.144 -0.944,-0.2 -0.525,-0.108 -0.829,-0.157 -0.829,-0.157 0,0 0.257,0.17 0.716,0.446 0.23,0.136 0.509,0.302 0.83,0.492 0.317,0.198 0.678,0.415 1.112,0.546 1.686,0.658 3.934,1.535 6.182,2.413 2.248,0.877 4.496,1.754 6.182,2.412 0.215,0.072 0.402,0.189 0.605,0.235 0.205,0.043 0.399,0.084 0.581,0.122 0.365,0.077 0.683,0.144 0.944,0.199 C -0.306,-0.046 0,0 0,0" /></g><g
           transform="translate(338.9577,474.2466)"
           id="g144"><path
             id="path146"
             style="fill:#ffffff;fill-opacity:1;fill-rule:nonzero;stroke:none"
             d="M 0,0 -22.374,-8.477" /></g><g
           transform="translate(338.9578,474.2466)"
           id="g148"><path
             id="path150"
             style="fill:#000000;fill-opacity:1;fill-rule:nonzero;stroke:none"
             d="m 0,0 c 0,0 -0.264,-0.359 -0.751,-0.92 -0.244,-0.278 -0.54,-0.618 -0.895,-0.969 -0.175,-0.18 -0.362,-0.372 -0.558,-0.574 -0.097,-0.105 -0.223,-0.142 -0.359,-0.162 -0.135,-0.021 -0.259,-0.082 -0.392,-0.129 -2.097,-0.795 -4.894,-1.854 -7.691,-2.914 -2.797,-1.059 -5.593,-2.119 -7.691,-2.914 -0.13,-0.053 -0.263,-0.089 -0.38,-0.158 -0.113,-0.081 -0.237,-0.124 -0.382,-0.102 -0.281,0.021 -0.548,0.041 -0.799,0.06 -0.498,0.029 -0.944,0.086 -1.31,0.129 -0.735,0.092 -1.166,0.176 -1.166,0.176 0,0 0.267,0.349 0.756,0.905 0.246,0.275 0.542,0.613 0.896,0.965 0.176,0.18 0.362,0.372 0.559,0.574 0.094,0.113 0.215,0.163 0.353,0.177 0.134,0.026 0.258,0.087 0.39,0.133 2.098,0.795 4.894,1.854 7.691,2.914 2.797,1.059 5.594,2.119 7.691,2.914 0.13,0.052 0.263,0.089 0.379,0.162 0.115,0.076 0.234,0.132 0.376,0.117 0.281,-0.021 0.548,-0.041 0.799,-0.06 C -1.986,0.296 -1.539,0.238 -1.172,0.191 -0.435,0.094 0,0 0,0" /></g><g
           transform="translate(312.4552,447.6462)"
           id="g152"><path
             id="path154"
             style="fill:none;stroke:#000000;stroke-width:0.83099997;stroke-linecap:butt;stroke-linejoin:miter;stroke-miterlimit:10;stroke-dasharray:none;stroke-opacity:1"
             d="m 0,0 h 5.819 l 4.89,-2.39" /></g><g
           transform="translate(300.2718,475.1207)"
           id="g156"><path
             id="path158"
             style="fill:#000000;fill-opacity:1;fill-rule:nonzero;stroke:none"
             d="m 0,0 c 0.318,0.527 0.652,1.032 0.995,1.527 l 0.526,0.726 c 0.187,0.227 0.32,0.523 0.574,0.665 0.248,0.148 0.462,0.34 0.692,0.511 l 0.681,0.527 1.361,1.054 5.444,4.215 0.361,0.279 0.447,-0.087 5.65,-1.104 1.412,-0.276 0.707,-0.134 C 19.095,7.907 19.32,7.81 19.539,7.681 20.428,7.228 21.315,6.762 22.187,6.223 21.176,6.052 20.18,5.955 19.186,5.869 18.934,5.832 18.689,5.827 18.463,5.923 L 17.758,6.064 16.345,6.34 10.696,7.444 11.504,7.635 6.06,3.42 4.698,2.367 4.018,1.84 C 3.795,1.659 3.555,1.5 3.349,1.297 3.149,1.087 2.828,1.033 2.562,0.908 L 1.727,0.58 C 1.162,0.373 0.589,0.176 0,0" /></g></g></g></g></svg>